<?xml version="1.0" standalone="no"?>
<!DOCTYPE svg PUBLIC "-//W3C//DTD SVG 20010904//EN"
 "http://www.w3.org/TR/2001/REC-SVG-20010904/DTD/svg10.dtd">
<svg version="1.0" xmlns="http://www.w3.org/2000/svg"
 width="650.000000pt" height="650.000000pt" viewBox="0 0 650.000000 650.000000"
 preserveAspectRatio="xMidYMid meet">
<metadata>
Created by potrace 1.14, written by Peter Selinger 2001-2017
</metadata>
<g transform="translate(0.000000,650.000000) scale(0.100000,-0.100000)"
fill="#000000" stroke="none">
<path d="M3021 6470 c-505 -102 -973 -475 -1395 -1114 -42 -63 -76 -117 -76
-119 0 -2 -31 -57 -68 -123 -173 -301 -356 -740 -441 -1056 -11 -40 -25 -89
-31 -108 -14 -46 -78 -362 -85 -420 -3 -25 -7 -52 -10 -60 -2 -8 -7 -44 -10
-80 -4 -36 -8 -78 -10 -95 -22 -170 -21 -620 1 -805 18 -154 26 -210 45 -310
18 -95 20 -103 40 -185 11 -44 22 -90 25 -102 29 -141 197 -543 286 -688 7
-11 30 -49 52 -85 121 -201 315 -426 511 -593 90 -77 295 -216 399 -271 201
-106 452 -192 653 -222 21 -3 49 -7 63 -10 133 -22 432 -22 563 1 10 2 51 9
90 15 102 18 264 64 387 112 107 42 322 149 351 174 8 8 19 14 22 14 4 0 37
21 75 47 458 316 806 786 995 1343 34 102 75 241 83 284 5 27 10 50 22 106 6
25 13 63 16 85 4 22 11 67 16 100 24 154 34 305 34 525 1 152 -9 359 -18 420
-3 14 -7 48 -10 75 -21 179 -51 341 -97 535 -17 69 -32 132 -34 140 -24 100
-121 398 -185 565 -78 204 -206 473 -321 673 -58 100 -225 353 -268 404 -10
13 -56 68 -102 123 -298 359 -656 600 -1017 686 -124 30 -134 31 -302 34 -122
3 -175 -1 -249 -15z"/>
</g>
</svg>
