<svg width="125" height="102" viewBox="0 0 125 102" fill="none" xmlns="http://www.w3.org/2000/svg">
<path d="M43.1632 91.5684C43.1632 91.5684 45.4202 96.3954 45.1992 96.8344C44.9792 97.2734 42.7032 97.4924 42.9622 97.8584C43.2212 98.2244 46.5652 97.6394 46.5652 97.6394C46.5652 97.6394 49.8852 99.4674 50.6332 99.3214C51.3822 99.1754 47.5942 96.9814 47.5942 96.9814C47.5942 96.9814 52.1842 97.3474 52.4742 96.9084C52.7642 96.4694 46.5282 96.3234 46.5282 96.3234C46.5282 96.3234 44.6412 91.6424 44.4322 91.1304C44.2232 90.6174 43.0942 91.0564 43.1632 91.5684Z" fill="#B8436C"/>
<path d="M34.3502 86.8144C39.3562 88.7164 41.9832 92.6654 44.1602 92.2264C46.3362 91.7874 45.6972 80.8174 45.6972 80.8174C45.6972 80.8174 35.5742 83.4504 34.3502 86.8144Z" fill="#8B98A6"/>
<path d="M28.0122 91.0814C27.7582 91.6734 28.3612 97.0184 28.3612 97.4374C28.3612 97.8564 25.3572 97.3674 25.2872 98.0664C25.2172 98.7654 27.9412 98.1364 27.9412 98.1364C27.9412 98.1364 27.7312 101.139 28.2902 101.139C28.8492 101.139 29.0582 98.3454 29.0582 98.3454C29.0582 98.3454 32.2712 100.65 32.9702 100.58C33.6692 100.51 29.9662 97.9954 29.9662 97.9954C29.9662 97.9954 33.2492 98.4144 33.4592 97.7854C33.6692 97.1564 29.4772 97.3664 29.4772 97.3664C29.4772 97.3664 29.1282 91.4984 29.1972 91.0094C29.2692 90.5234 28.2222 90.5924 28.0122 91.0814Z" fill="#B8436C"/>
<path d="M18.8892 78.5454C18.4812 77.2194 11.7362 78.1594 11.7362 78.1594L12.2952 78.2994C11.8762 78.4394 1.8172 82.7704 0.141204 85.4244C-0.517796 86.4684 1.1992 86.4534 3.8472 85.8304C3.7662 85.9294 3.6942 86.0274 3.6342 86.1224C1.9572 88.7764 15.6482 84.5854 20.9572 80.9534C24.0972 78.8054 21.5192 78.4644 18.8892 78.5454Z" fill="#6A7996"/>
<path d="M117.205 37.8964C113.415 41.4534 104.859 45.1684 104.859 45.1684C104.859 45.1684 110.856 44.7194 113.718 43.9504C116.581 43.1804 115.142 53.3464 102.824 52.7334C106.287 53.4384 110.13 59.5864 95.1952 59.4304C99.3302 61.0384 94.9112 66.3614 89.4592 64.3494C90.9712 68.6694 86.4442 69.6414 82.8622 67.9664C84.2842 72.7194 78.1112 74.0324 75.1892 71.9954C73.5102 76.7024 68.6762 76.3054 66.1542 74.0784C65.7112 75.2644 64.8212 75.8554 63.6812 76.0074C61.4922 76.3024 58.3862 74.9864 55.7632 73.1824C55.1662 72.7714 54.5962 72.3354 54.0672 71.8884C54.0662 71.8814 54.0642 71.8734 54.0632 71.8664C53.9902 71.5254 53.9182 71.1804 53.8482 70.8274C51.9292 61.4044 50.0752 48.3084 50.0752 48.3084C51.4192 48.5264 52.5492 48.6994 53.6172 48.6874C53.8082 48.6864 53.9972 48.6794 54.1842 48.6634C56.4362 48.4884 58.5162 47.3544 61.9032 43.8994C63.0602 42.7194 64.3702 41.2674 65.8922 39.4904C71.8072 32.5794 82.9562 30.5194 92.7102 26.2374C95.2612 25.1174 97.5342 23.9254 99.5792 22.6694C105.355 19.1264 109.322 15.0794 112.637 10.7274C117.127 4.83336 116.883 0.500357 119.703 1.70536C122.524 2.91136 120.502 16.3854 110.931 23.3194C116.331 20.2714 119.985 15.6044 122.661 13.3084C125.338 11.0134 125.198 21.4444 117.602 28.4184C112.533 33.0744 109.749 34.8814 108.46 35.5684C110.755 34.5314 116.767 31.7294 119.435 29.6034C122.77 26.9464 120.994 34.3394 117.205 37.8964Z" fill="#A5B5C5"/>
<path d="M53.8472 70.8274C53.9192 71.1874 53.9932 71.5414 54.0662 71.8884C58.1442 75.3334 64.6672 78.0584 66.1542 74.0784C68.6762 76.3054 73.5102 76.7024 75.1892 71.9954C78.1112 74.0324 84.2842 72.7194 82.8622 67.9664C86.4432 69.6424 90.9692 68.6694 89.4592 64.3494C94.9112 66.3604 99.3302 61.0384 95.1942 59.4304C110.13 59.5854 106.287 53.4374 102.824 52.7334C115.142 53.3474 116.58 43.1804 113.719 43.9504C110.857 44.7204 104.86 45.1684 104.86 45.1684C104.86 45.1684 113.415 41.4544 117.205 37.8974C120.995 34.3404 122.77 26.9474 119.434 29.6044C116.765 31.7304 110.754 34.5324 108.458 35.5684C109.748 34.8814 112.532 33.0744 117.601 28.4194C125.197 21.4444 125.336 11.0134 122.66 13.3084C119.984 15.6044 116.329 20.2704 110.929 23.3194C120.5 16.3854 122.522 2.91136 119.701 1.70636C116.881 0.501358 117.126 4.83436 112.635 10.7274C109.319 15.0794 105.353 19.1264 99.5772 22.6694C96.0222 26.8524 99.2342 28.1294 100.394 28.1174C96.5122 33.2334 96.7072 37.1504 99.1662 37.6954C94.4902 42.0634 95.8482 45.1354 97.8742 45.5924C92.7052 47.0654 94.0472 49.9984 95.5852 51.0774C91.2822 52.7264 90.8412 54.8904 90.7662 56.5884C84.6642 57.3304 85.2752 61.1964 85.2752 61.1964C85.2752 61.1964 80.5842 59.6554 80.1152 65.0604C77.0682 64.3054 74.2272 64.0874 73.2612 67.7234C69.6842 64.9214 66.2292 66.6074 65.4572 69.5164C62.8172 66.3194 54.1092 68.7854 54.1092 68.7854L53.8472 70.8274Z" fill="#5E6D8C"/>
<path opacity="0.3" d="M55.8592 62.7824C56.5992 62.9944 57.3612 63.1364 58.1192 63.1404C58.8732 63.1434 59.6332 62.9894 60.2372 62.5874C60.8462 62.1914 61.2532 61.5574 61.4832 60.8664L61.5932 60.5354L61.9062 60.7354C62.5012 61.1584 63.1772 61.4664 63.8852 61.5814C64.5902 61.6994 65.3272 61.6164 65.9642 61.3124C66.6012 61.0134 67.1282 60.4894 67.3922 59.8474C67.5252 59.5274 67.5942 59.1824 67.5962 58.8344C67.5982 58.4864 67.5342 58.1364 67.4172 57.8004L67.2582 57.3414L67.7352 57.4344C68.6002 57.6034 69.4902 57.6354 70.3452 57.4774C71.1972 57.3184 72.0102 56.9564 72.6502 56.3894C73.2902 55.8254 73.7442 55.0574 73.9052 54.2234C74.0712 53.3894 73.9432 52.5084 73.5822 51.7294L73.4092 51.3554L73.8222 51.3334C74.5802 51.2934 75.3332 51.1554 76.0492 50.9134C76.7622 50.6694 77.4452 50.3224 78.0122 49.8464C78.5752 49.3764 79.0272 48.7544 79.1222 48.0664C79.1702 47.7254 79.1262 47.3764 79.0002 47.0504C78.8762 46.7234 78.6722 46.4204 78.4292 46.1494L78.0202 45.6914L78.6332 45.6834C79.4072 45.6724 80.1742 45.4594 80.8512 45.0794C81.5272 44.6994 82.1182 44.1584 82.5352 43.5104C82.9492 42.8684 83.1922 42.0934 83.0562 41.3754C82.9892 41.0204 82.8262 40.6904 82.5832 40.4204C82.3402 40.1504 82.0252 39.9394 81.6792 39.7814L80.5652 39.1964L81.7972 39.2474C82.5032 39.2764 83.2262 39.0464 83.8642 38.6744C84.5032 38.2994 85.0732 37.7874 85.5212 37.1844C85.7442 36.8824 85.9382 36.5564 86.0812 36.2094C86.2242 35.8634 86.3182 35.4934 86.3242 35.1184C86.3282 34.7454 86.2322 34.3664 86.0122 34.0564C85.7972 33.7434 85.4752 33.5104 85.1252 33.3514C85.4832 33.4894 85.8252 33.7034 86.0682 34.0154C86.3162 34.3234 86.4442 34.7204 86.4632 35.1164C86.4812 35.5144 86.4052 35.9104 86.2762 36.2844C86.1472 36.6584 85.9652 37.0134 85.7492 37.3444C85.3162 38.0064 84.7502 38.5834 84.0852 39.0304C83.6422 39.3244 83.1452 39.5604 82.6142 39.6924C82.7512 39.7984 82.8812 39.9164 82.9992 40.0474C83.3062 40.3864 83.5212 40.8194 83.6052 41.2704C83.6892 41.7224 83.6562 42.1844 83.5412 42.6124C83.4272 43.0424 83.2392 43.4444 83.0042 43.8104C82.5322 44.5434 81.8762 45.1414 81.1232 45.5654C80.5252 45.9004 79.8602 46.1184 79.1782 46.2014C79.3142 46.4014 79.4322 46.6174 79.5202 46.8494C79.6772 47.2544 79.7352 47.7064 79.6732 48.1424C79.6122 48.5784 79.4412 48.9884 79.2082 49.3424C78.9762 49.6994 78.6862 50.0074 78.3692 50.2734C77.7332 50.8054 76.9932 51.1784 76.2262 51.4414C75.5812 51.6594 74.9132 51.7964 74.2382 51.8604C74.5252 52.6414 74.6152 53.5044 74.4502 54.3294C74.2652 55.2864 73.7432 56.1674 73.0172 56.8064C72.2912 57.4494 71.3792 57.8514 70.4442 58.0254C69.6542 58.1724 68.8482 58.1664 68.0632 58.0544C68.1202 58.3104 68.1532 58.5714 68.1512 58.8364C68.1492 59.2544 68.0652 59.6744 67.9042 60.0614C67.5832 60.8404 66.9482 61.4664 66.2002 61.8174C65.4512 62.1754 64.5952 62.2684 63.7912 62.1334C63.0972 62.0194 62.4432 61.7464 61.8592 61.3774C61.7292 61.6424 61.5762 61.8984 61.3892 62.1304C61.1322 62.4564 60.8112 62.7354 60.4532 62.9434C60.0952 63.1524 59.7002 63.2834 59.3022 63.3574C58.9042 63.4304 58.5012 63.4424 58.1052 63.4194C57.3132 63.3674 56.5462 63.1744 55.8122 62.9154C55.0782 62.6534 54.3682 62.3304 53.6972 61.9414C54.3942 62.2884 55.1192 62.5674 55.8592 62.7824Z" fill="#8B98A6"/>
<path d="M56.8612 68.6594C56.6012 70.4084 56.2372 71.8974 55.7632 73.1834C53.4352 79.4954 48.4542 80.8934 40.0962 84.0274C30.0372 87.7994 30.5962 91.0124 29.7582 91.8504C28.9202 92.6884 23.4712 90.3134 20.6772 85.8434C19.4842 83.9354 18.2412 81.0834 17.3482 78.1274C16.1492 74.1594 15.5852 70.0034 16.6262 67.6814C18.4422 63.6304 28.3612 49.9384 30.4022 45.4904L36.7432 42.5344L53.0332 47.3764C53.0332 47.3764 53.2642 47.8474 53.6162 48.6864C54.5632 50.9414 56.3852 55.8494 56.9612 61.4134V61.4204C57.2022 63.7664 57.2222 66.2294 56.8612 68.6594Z" fill="#A5B5C5"/>
<path d="M53.8482 49.2474C53.8482 49.2474 54.0252 49.6944 53.8482 51.1504C53.6712 52.6044 52.4372 52.2664 52.4372 52.2664C52.4372 52.2664 52.9962 54.0364 52.4372 54.9684C51.8782 55.9004 49.3962 55.9844 49.3962 55.9844C49.3962 55.9844 48.8992 57.3894 47.5022 58.5074C46.1052 59.6254 43.1352 55.8864 43.1352 55.8864C43.1352 55.8864 42.2872 56.5514 41.3452 56.2724C40.4052 55.9934 38.2812 50.6844 38.2812 50.6844C38.2812 50.6844 37.0752 52.1754 36.6102 50.7784C36.1452 49.3814 32.9722 45.7494 30.4032 45.4924C35.0902 33.2334 29.8512 24.5424 27.4942 17.4164C27.1132 16.2594 26.8072 15.1434 26.6312 14.0604C25.3742 6.30636 32.8732 -0.418644 42.9772 0.020356C47.7952 0.230356 55.7592 11.7554 56.1782 14.8984C56.5972 18.0414 49.8912 25.7944 49.2632 33.1284C48.8632 37.7914 50.4972 42.2864 51.7392 44.9404C51.8542 45.1824 51.9642 45.4094 52.0692 45.6194C53.5442 47.5684 53.8482 49.2474 53.8482 49.2474Z" fill="#6A7996"/>
<path opacity="0.3" d="M61.6252 74.4084C58.6912 71.6844 57.0152 58.9014 57.0152 54.7104C57.0152 50.5194 62.4642 43.8144 62.4642 43.8144L61.9022 43.8994C58.5162 47.3544 56.4352 48.4884 54.1832 48.6634C55.3152 51.7874 56.7702 56.6514 56.9602 61.4144V61.4214C57.0282 63.1384 56.9322 64.8414 56.5952 66.4454C56.1972 68.3494 55.2932 70.1684 54.0622 71.8674C49.4672 78.2044 40.3122 82.8454 35.8502 83.8374C30.1922 85.0944 29.1442 88.8664 27.6772 88.6574C26.2102 88.4474 22.0192 82.7894 27.2582 78.8084C32.4972 74.8284 36.2692 69.3794 35.6402 62.0454C35.6402 62.0454 24.3242 70.8464 21.1802 73.9904C19.9102 75.2604 18.5732 76.5974 17.3472 78.1284C18.2402 81.0844 19.4832 83.9364 20.6762 85.8444C23.4702 90.3154 28.9192 92.6894 29.7572 91.8514C30.5952 91.0134 30.0362 87.8004 40.0952 84.0284C48.4522 80.8944 53.4342 79.4964 55.7622 73.1844C58.3862 74.9884 61.4912 76.3044 63.6802 76.0094C63.0052 75.5674 62.3042 75.0384 61.6252 74.4084Z" fill="#8B98A6"/>
<path d="M23.1922 79.6954C22.7352 79.8824 22.2852 80.0564 21.8422 80.2154C20.7052 80.6264 19.6172 80.9464 18.5802 81.1894C17.0352 81.5524 15.6042 81.7454 14.2982 81.8094C8.57621 82.0934 5.2242 79.9234 5.0302 78.8574C1.2582 78.5784 3.7732 76.3424 3.7732 76.3424C3.7732 76.3424 2.2362 77.0404 1.9572 75.5044C1.8272 74.7934 3.5862 73.1814 5.9572 71.2684C7.5692 69.9664 9.4652 68.5244 11.2412 67.1304C12.2052 66.3744 13.1352 65.6324 13.9642 64.9344C14.2102 64.7274 14.4462 64.5254 14.6712 64.3284C15.1212 63.9344 15.5832 63.4594 16.0552 62.9244C20.2702 58.1544 25.3082 48.6744 30.4572 50.0784C31.9942 50.4974 35.0672 53.5714 35.7662 57.9024C36.4642 62.2324 37.1632 73.9684 23.1922 79.6954Z" fill="#6A7996"/>
<path d="M14.2992 81.8094C8.5772 82.0934 5.22521 79.9234 5.03121 78.8574C1.25921 78.5784 3.77421 76.3424 3.77421 76.3424C3.77421 76.3424 2.23721 77.0404 1.95821 75.5044C1.74021 74.3084 6.8562 70.5724 11.2412 67.1304C9.7622 73.7124 11.6232 79.0994 14.2992 81.8094Z" fill="#4D4D66"/>
<path d="M21.8432 80.2154C20.7062 80.6264 19.6182 80.9464 18.5812 81.1894C16.4982 78.8774 13.0922 72.8084 13.9642 64.9344C14.2102 64.7274 14.4462 64.5254 14.6712 64.3284C15.1212 63.9344 15.5832 63.4594 16.0552 62.9244C15.4162 73.3714 19.6762 78.3704 21.8432 80.2154Z" fill="#4D4D66"/>
<path opacity="0.2" d="M23.1922 79.6954C22.7352 79.8824 22.2852 80.0564 21.8422 80.2154C20.7052 80.6264 19.6172 80.9464 18.5802 81.1894C17.0352 81.5524 15.6042 81.7454 14.2982 81.8094C8.57621 82.0934 5.2242 79.9234 5.0302 78.8574C1.2582 78.5784 3.7732 76.3424 3.7732 76.3424C3.7732 76.3424 2.2362 77.0404 1.9572 75.5044C1.8272 74.7934 3.5862 73.1814 5.9572 71.2684C5.9322 71.3374 5.9082 71.4054 5.8862 71.4734C4.6472 75.1924 13.3882 70.5594 13.6342 70.4284C13.3992 70.5624 5.47919 75.0634 6.30519 76.9214C6.95519 78.3814 11.2552 76.4464 13.1562 75.5004C10.9362 76.6884 5.6962 79.7674 10.0772 80.2724C15.5252 80.9014 35.8512 74.1964 35.7662 57.9004C36.4642 62.2324 37.1632 73.9684 23.1922 79.6954Z" fill="#4D4D66"/>
<path d="M43.4492 15.8504L46.5902 11.9224C46.5902 11.9224 42.9602 9.94736 42.0172 10.2964C41.0742 10.6454 39.1182 14.3124 39.1182 14.3124L43.4492 15.8504Z" fill="#4C5457"/>
<path d="M39.1192 14.3144C39.1192 14.3144 39.7132 9.11036 40.6212 8.62136C41.5292 8.13236 46.5912 11.9234 46.5912 11.9234C46.5912 11.9234 42.9962 10.0534 42.0532 10.4024C41.1092 10.7514 39.1192 14.3144 39.1192 14.3144Z" fill="#EBEFE7"/>
<path d="M36.1852 13.1264C35.2772 13.3654 34.5372 13.3014 33.9612 13.0354L33.9602 13.0344C31.5122 11.9114 31.9892 7.16836 34.9282 6.49036C36.3392 6.16436 37.5632 6.90536 38.2492 8.00636C39.3352 9.73836 39.0962 12.3624 36.1852 13.1264Z" fill="white"/>
<path d="M36.1852 13.1264C35.2772 13.3654 34.5372 13.3014 33.9612 13.0354L33.9602 13.0344C33.2972 12.4294 32.8792 11.5574 32.8792 10.5884C32.8792 8.76236 34.3602 7.28336 36.1862 7.28336C36.9672 7.28336 37.6842 7.55435 38.2502 8.00735C39.3352 9.73835 39.0962 12.3624 36.1852 13.1264Z" fill="#EDA724"/>
<path d="M36.3242 12.7774C37.4045 12.7774 38.2802 11.9016 38.2802 10.8214C38.2802 9.74108 37.4045 8.86536 36.3242 8.86536C35.2439 8.86536 34.3682 9.74108 34.3682 10.8214C34.3682 11.9016 35.2439 12.7774 36.3242 12.7774Z" fill="#473625"/>
<path d="M49.0892 9.41135C48.8462 9.98235 48.3632 10.4524 47.6402 10.6814C47.4712 10.7344 47.3022 10.7684 47.1332 10.7804C45.9412 10.8784 44.7292 10.0554 43.8892 9.01335C43.3962 8.40135 43.0312 7.71235 42.8762 7.09235C42.6442 6.16035 43.2562 5.21335 44.2172 4.95335C47.5712 4.04535 49.8842 7.54835 49.0892 9.41135Z" fill="white"/>
<path d="M49.0892 9.41136C48.8462 9.98236 48.3632 10.4524 47.6402 10.6814C47.4712 10.7344 47.3022 10.7684 47.1332 10.7804C45.9412 10.8784 44.7292 10.0554 43.8892 9.01336C43.3962 8.40136 43.0312 7.71236 42.8762 7.09236C42.9932 6.90636 43.1362 6.73436 43.3042 6.58136C44.5402 5.44836 46.6542 5.74436 48.0262 7.24236C48.6202 7.89136 48.9762 8.65836 49.0892 9.41136Z" fill="#EDA724"/>
<path d="M47.2062 10.7194C47.1822 10.7404 47.1582 10.7614 47.1332 10.7814C45.9412 10.8794 44.7292 10.0564 43.8892 9.01436C43.8322 8.48236 43.9902 7.97036 44.3682 7.62336C45.0752 6.97636 46.2822 7.14536 47.0662 8.00036C47.8502 8.85536 47.9122 10.0724 47.2062 10.7194Z" fill="#473625"/>
<path opacity="0.3" d="M39.4912 65.3994C39.4912 65.3994 38.5602 68.2864 39.9572 68.8454C41.3542 69.4044 43.3102 64.6544 43.3102 64.6544C43.3102 64.6544 41.0752 68.2864 40.1432 68.1004C39.2122 67.9144 39.4912 65.3994 39.4912 65.3994Z" fill="#8B98A6"/>
<path opacity="0.3" d="M44.6142 70.3354C44.6142 70.3354 43.6832 73.2224 45.0802 73.7814C46.4772 74.3404 48.4332 69.5904 48.4332 69.5904C48.4332 69.5904 46.1982 73.2224 45.2662 73.0364C44.3342 72.8504 44.6142 70.3354 44.6142 70.3354Z" fill="#8B98A6"/>
<path opacity="0.3" d="M50.5802 62.9634C50.5802 62.9634 50.3532 65.9884 51.8422 66.2034C53.3312 66.4184 54.1162 61.3414 54.1162 61.3414C54.1162 61.3414 52.7972 65.3974 51.8482 65.4354C50.9002 65.4734 50.5802 62.9634 50.5802 62.9634Z" fill="#8B98A6"/>
<path opacity="0.2" d="M53.8482 51.1504C53.6712 52.6044 52.4372 52.2664 52.4372 52.2664C52.4372 52.2664 52.9962 54.0364 52.4372 54.9684C51.8782 55.9004 49.3962 55.9844 49.3962 55.9844C49.3962 55.9844 48.8992 57.3894 47.5022 58.5074C46.1052 59.6254 43.1352 55.8864 43.1352 55.8864C43.1352 55.8864 42.2872 56.5514 41.3452 56.2724C40.4052 55.9934 38.2812 50.6844 38.2812 50.6844C38.2812 50.6844 37.0752 52.1754 36.6102 50.7784C36.1452 49.3814 32.9722 45.7494 30.4032 45.4924C35.0902 33.2334 29.8512 24.5424 27.4942 17.4164C29.8542 22.5184 33.1402 28.1194 33.7172 32.9904C34.3692 38.4854 35.1142 45.5634 36.3252 46.5874C37.5362 47.6114 38.6542 46.0284 38.6542 46.0284C38.6542 46.0284 39.8642 51.2434 41.4482 50.9644C43.0312 50.6854 43.6832 49.8464 43.6832 49.8464C43.6832 49.8464 46.9422 53.9454 48.4332 53.1074C49.9222 52.2694 49.8302 49.0084 49.8302 49.0084C49.8302 49.0084 52.3452 51.3374 51.8782 46.3084C51.8352 45.8434 51.7872 45.3864 51.7372 44.9404C51.8522 45.1824 51.9622 45.4094 52.0672 45.6194C53.5452 47.5694 53.8482 49.2494 53.8482 49.2494C53.8482 49.2494 54.0252 49.6944 53.8482 51.1504Z" fill="#8B98A6"/>
</svg>
